# xmcd
#
# Track frame offsets: 
#        150
#        19075
#        51437
#        80352
#
# Disc length: 1457 seconds
#
# Revision: 0
# Processed by: cddbd v1.5.2PL0 Copyright (c) Steve Scherf et al.
# Submitted via: ExactAudioCopy v0.99pb5
#
DISCID=2905af04
DTITLE=Aziza - Crazy
DYEAR=1997
DGENRE=Trance
TTITLE0=Crazy (Radio Bitch Mix 2)
TTITLE1=Crazy (Original Mix 2)
TTITLE2=Crazy (Tokapi Extended)
TTITLE3=Crazy (Da Flip RMX)
EXTD=
EXTT0=
EXTT1=
EXTT2=
EXTT3=
PLAYORDER=
